# xmcd
#
# Track frame offsets:
#	150
#	10777
#	24012
#	40280
#	52262
#	77102
#	84817
#	93850
#	114740
#	127525
#	151630
#	163360
#	176452
#	187102
#	199122
#	210540
#	223887
#	234415
#	249125
#	257527
#	278987
#	291355
#	300392
#	311072
#
# Disc length: 4306 seconds
#
# Revision: 2
# Processed by: cddbd v1.4b41PL1 Copyright (c) Steve Scherf et al.
# Submitted via: EZCDDA 4.3.2
#
DISCID=3b10d018
DTITLE=Lasica-Satinsky-Filip - Piesne 1981-1990 CD1
DYEAR=1900
DGENRE=
TTITLE0=Chcel by som byt ...
TTITLE1=Spomiman na Pariz
TTITLE2=Jezibaby
TTITLE3=Na vystave
TTITLE4=V jedalnom vozni
TTITLE5=Ach, to by boli vojny malebne
TTITLE6=V nasej obci
TTITLE7=Za dedinou ...
TTITLE8=Jano bol chlap ...
TTITLE9=Vyletel vtak ...
TTITLE10=Ked som isiel ...
TTITLE11=Do batozka
TTITLE12=Pekne vitam
TTITLE13=Fair play
TTITLE14=Smola
TTITLE15=Zazrak
TTITLE16=Priatelovi
TTITLE17=Peniaze
TTITLE18=Majstrovstva
TTITLE19=Rozpacite blues
TTITLE20=Bicykel
TTITLE21=Rotschild
TTITLE22=Clivota
TTITLE23=Ceresne
EXTD=
EXTT0=
EXTT1=
EXTT2=
EXTT3=
EXTT4=
EXTT5=
EXTT6=
EXTT7=
EXTT8=
EXTT9=
EXTT10=
EXTT11=
EXTT12=
EXTT13=
EXTT14=
EXTT15=
EXTT16=
EXTT17=
EXTT18=
EXTT19=
EXTT20=
EXTT21=
EXTT22=
EXTT23=
PLAYORDER=
